<?xml version="1.0" encoding="utf-8"?>
<!-- Generator: Adobe Illustrator 26.0.1, SVG Export Plug-In . SVG Version: 6.00 Build 0)  -->
<svg version="1.1" xmlns="http://www.w3.org/2000/svg" xmlns:xlink="http://www.w3.org/1999/xlink" x="0px" y="0px"
	 viewBox="0 0 324.5 324.5" style="enable-background:new 0 0 324.5 324.5;" xml:space="preserve">
<style type="text/css">
	.st0{fill:url(#SVGID_1_);}
	.st1{enable-background:new    ;}
	.st2{fill:#FFFFFF;}
</style>
<g id="bg">
	
		<linearGradient id="SVGID_1_" gradientUnits="userSpaceOnUse" x1="109.7693" y1="270.9819" x2="434.2267" y2="270.9819" gradientTransform="matrix(6.123234e-17 1 -1 6.123234e-17 433.2106 -109.7693)">
		<stop  offset="0" style="stop-color:#D4875A"/>
		<stop  offset="0.2548" style="stop-color:#C96D72"/>
		<stop  offset="0.3277" style="stop-color:#C6647A"/>
		<stop  offset="0.5868" style="stop-color:#927BB0"/>
		<stop  offset="0.6972" style="stop-color:#7B86C8"/>
		<stop  offset="1" style="stop-color:#5B9FCC"/>
	</linearGradient>
	<circle class="st0" cx="162.2" cy="162.2" r="162.2"/>
	<g class="st1">
		<path class="st2" d="M74.4,214.6c-7.2,0-13.7-1-19.3-3.1c-5.6-2.1-10.3-5.1-14.2-9c-3.9-3.9-6.7-8.6-8.7-14.1
			c-1.9-5.5-2.9-11.8-2.9-18.9c0-7,1-13.5,2.9-19.4c1.9-5.9,4.8-11,8.5-15.4c3.7-4.4,8.3-7.7,13.7-10c5.4-2.3,11.5-3.5,18.3-3.5
			c6.6,0,12.4,1,17.6,3.1c5.2,2.1,9.4,5.3,12.8,9.6c3.4,4.3,5.9,9.6,7.6,15.9c1.7,6.3,2.4,13.6,2,22l-69.5,0.3v-12.4l56.9-0.3
			l-7.6,6.8c0.7-6.5,0.2-11.7-1.4-15.9c-1.6-4.1-4.1-7.2-7.3-9.2c-3.2-2-6.9-3-11-3c-4.5,0-8.5,1.2-12,3.7
			c-3.5,2.4-6.1,5.9-8.1,10.5c-1.9,4.6-2.9,10.2-2.9,16.7c0,9.9,2.1,17.2,6.5,22.1c4.3,4.9,10.3,7.3,18,7.3c3.4,0,6.3-0.4,8.6-1.3
			c2.3-0.8,4.3-2,5.9-3.5c1.6-1.5,2.9-3.1,3.8-4.9c1-1.8,1.7-3.6,2.3-5.4l18.7,4.1c-1,4.2-2.5,7.9-4.5,11.2c-2,3.3-4.6,6.1-7.8,8.6
			c-3.2,2.4-7.1,4.3-11.5,5.5C85.4,213.9,80.3,214.6,74.4,214.6z"/>
		<path class="st2" d="M127.7,212.2v-56.2v-32.6h17.7l-0.7,27.2h3.1c1.6-6.6,3.7-12,6.2-16.4c2.5-4.4,5.7-7.6,9.4-9.8
			c3.7-2.1,8-3.2,12.7-3.2c5.5,0,10,1.2,13.5,3.7c3.5,2.5,6.1,5.9,8.1,10.2c1.9,4.3,3.1,9.4,3.6,15.3h2.7c1.6-6.6,3.7-12,6.5-16.3
			c2.7-4.3,6.1-7.5,10.1-9.7c4-2.1,8.5-3.2,13.3-3.2c4.6,0,8.8,1,12.4,2.9c3.6,1.9,6.7,4.7,9.2,8.4c2.5,3.7,4.3,8.3,5.5,13.8
			c1.2,5.6,1.8,12,1.8,19.2v46.7h-21.6v-44c0-6.3-0.5-11.6-1.6-15.8c-1.1-4.2-2.7-7.4-5-9.5c-2.3-2.2-5.1-3.2-8.5-3.2
			c-3.9,0-7.2,1.3-10.2,4c-2.9,2.7-5.3,6.3-7.1,11c-1.8,4.7-2.8,10-3.1,15.9v41.6h-21.1v-43c0-6.7-0.6-12.2-1.7-16.5
			c-1.1-4.3-2.8-7.6-5.1-9.8c-2.3-2.2-5.2-3.3-8.7-3.3c-4.1,0-7.6,1.4-10.4,4.1c-2.9,2.7-5.2,6.5-6.8,11.3c-1.6,4.8-2.6,10.1-3,15.9
			v41.3H127.7z"/>
	</g>
	<path class="st2" d="M270.2,73.9c0,4.1,1.6,34.5,26.7,38.5c-25.1,4.1-26.7,34.5-26.7,36.5c0-2-1.6-32.4-26.7-36.5
		C268.6,108.3,270.2,77.9,270.2,73.9z"/>
</g>
<g id="text">
</g>
</svg>
